<?xml version="1.0" encoding="UTF-8"?>
<svg width="1024" height="1024" xmlns="http://www.w3.org/2000/svg" xmlns:svg="http://www.w3.org/2000/svg">
 <title/>
 <g display="inline">
  <title>Layer 1 copy</title>
  <g id="svg_2"/>
  <path id="svg_3" fill="#ffffff" d="m843.544,361.408c0,183.105 -332.861,620.933 -331.544,621.755s-331.544,-438.649 -331.544,-621.755c0,-183.104 148.439,-331.544 331.544,-331.544s331.544,148.433 331.544,331.544zm-331.544,-139.948c-77.052,0 -139.523,62.462 -139.523,139.519s62.471,139.519 139.523,139.519c77.056,0 139.522,-62.462 139.522,-139.519s-62.466,-139.519 -139.522,-139.519z"/>
  <circle id="svg_4" r="157.003189" cy="372" cx="510" stroke-linecap="null" stroke-linejoin="null" stroke-dasharray="null" stroke-width="null" fill="#ffffff"/>
  <g id="icomoon-ignore"/>
  <path transform="rotate(0.06268680840730667 514.5196533203409,489.0179443360252) " fill="black" id="svg_1" d="m796.563697,362.638073c0,159.474958 -283.164382,540.800438 -282.044012,541.516358s-282.044012,-382.040528 -282.044012,-541.516358c0,-159.474087 126.276848,-288.757628 282.044012,-288.757628s282.044012,129.277445 282.044012,288.757628zm-282.044012,-121.88745c-65.548028,0 -118.692019,54.401162 -118.692019,121.513813s53.143991,121.513813 118.692019,121.513813c65.55143,0 118.691168,-54.401162 118.691168,-121.513813s-53.139738,-121.513813 -118.691168,-121.513813z"/>
 </g>
</svg>